# xmcd
#
# Track frame offsets:
#	150
#	15691
#	32224
#	48668
#	65528
#	85305
#	102625
#	121647
#	145647
#	165215
#	189023
#	208474
#
# Disc length: 3024 seconds
#
# Revision: 1
# Processed by: cddbd v1.5.1PL2 Copyright (c) Steve Scherf et al.
# Submitted via: audiograbber 1.83.01
#
DISCID=9f0bce0c
DTITLE=Profil - Neues Land
DYEAR=2004
DGENRE=Christian Country
TTITLE0=Was ist das
TTITLE1=Neues Land
TTITLE2=Am Morgen
TTITLE3=Helden
TTITLE4=Neid
TTITLE5=Herr öffne uns die Augen
TTITLE6=Worte
TTITLE7=Bitte halt an
TTITLE8=Hoffnung
TTITLE9=Gott will mein Herz
TTITLE10=Gott ist gut
TTITLE11=Segenslied
EXTD=
EXTT0=
EXTT1=
EXTT2=
EXTT3=
EXTT4=
EXTT5=
EXTT6=
EXTT7=
EXTT8=
EXTT9=
EXTT10=
EXTT11=
PLAYORDER=
